<svg xmlns="http://www.w3.org/2000/svg" viewBox="0 0 800 600" fill="none">
  <rect width="800" height="600" fill="#f5f0eb"/>
  <!-- Crown -->
  <path d="M200 450 L180 200 L280 300 L400 150 L520 300 L620 200 L600 450" stroke="#1a1a1a" stroke-width="8" fill="none" stroke-linejoin="round"/>
  <path d="M180 200 L200 220 L220 190" stroke="#1a1a1a" stroke-width="4" fill="none"/>
  <path d="M620 200 L600 220 L580 190" stroke="#1a1a1a" stroke-width="4" fill="none"/>
  <path d="M380 150 L400 170 L420 145" stroke="#1a1a1a" stroke-width="4" fill="none"/>
  <!-- Crown fill -->
  <path d="M200 450 L180 200 L280 300 L400 150 L520 300 L620 200 L600 450 Z" fill="#d4785c" opacity="0.15"/>
  <!-- Scribble text -->
  <text x="280" y="520" font-family="Georgia,serif" font-size="28" fill="#1a1a1a" font-style="italic">ROYALTY</text>
  <text x="300" y="555" font-family="Courier,monospace" font-size="16" fill="#d4785c" transform="rotate(-5 300 555)">© 1982</text>
  <!-- Cross marks -->
  <line x1="50" y1="80" x2="120" y2="150" stroke="#1a1a1a" stroke-width="3"/>
  <line x1="120" y1="80" x2="50" y2="150" stroke="#1a1a1a" stroke-width="3"/>
  <line x1="700" y1="80" x2="750" y2="130" stroke="#1a1a1a" stroke-width="3"/>
  <line x1="750" y1="80" x2="700" y2="130" stroke="#1a1a1a" stroke-width="3"/>
  <!-- Circles -->
  <circle cx="680" cy="350" r="40" stroke="#1a1a1a" stroke-width="4" fill="none"/>
  <circle cx="680" cy="350" r="15" fill="#d4785c" opacity="0.4"/>
  <circle cx="120" cy="400" r="30" stroke="#1a1a1a" stroke-width="3" fill="none"/>
  <line x1="95" y1="400" x2="145" y2="400" stroke="#1a1a1a" stroke-width="3"/>
  <!-- Doodle lines -->
  <path d="M30 300 Q60 280 80 310 Q100 340 130 320" stroke="#1a1a1a" stroke-width="2" fill="none"/>
  <path d="M670 200 Q690 180 710 210 Q730 240 760 220" stroke="#1a1a1a" stroke-width="2" fill="none"/>
</svg>
